<?xml version="1.0" encoding="UTF-8"?>
<svg width="1171px" height="299px" viewBox="0 0 1171 299" version="1.1" xmlns="http://www.w3.org/2000/svg" xmlns:xlink="http://www.w3.org/1999/xlink">
    <!-- Generator: Sketch 52.5 (67469) - http://www.bohemiancoding.com/sketch -->
    <title>Group 43</title>
    <desc>Created with Sketch.</desc>
    <g id="Diagrams_InProgress" stroke="none" stroke-width="1" fill="none" fill-rule="evenodd">
        <g id="Group-43">
            <g id="Group-39" transform="translate(0.000000, 29.000000)">
                <g id="Group-39-Copy" transform="translate(0.000000, 16.000000)">
                    <path d="M115.895327,10.494275 C109.977378,10.494275 104.371668,12.0338977 99.0752792,15.1160589 C93.7788901,18.1923882 89.640995,22.3417879 86.6645119,27.558426 C83.6909469,32.775064 82.2027054,38.5923882 82.2027054,45.0045666 C82.2027054,54.4959903 85.4972636,62.5119423 92.0805439,69.0495066 C98.6638241,75.5899869 106.604031,78.858769 115.895327,78.858769 C122.099251,78.858769 127.839195,77.3570538 133.120993,74.3507073 C138.399874,71.3443608 142.517342,67.2299525 145.473398,62.0133145 C148.432372,56.7995923 149.91186,50.9997639 149.91186,44.6225769 C149.91186,38.2832973 148.432372,32.5505357 145.473398,27.4242922 C142.517342,22.2980486 138.353184,18.1923882 132.983842,15.1160589 C127.611581,12.0338977 121.918328,10.494275 115.895327,10.494275 Z M115.542234,2.73201087 C127.646599,2.73201087 137.781232,6.7676884 145.937379,14.8390435 C154.090608,22.9133145 158.170141,32.8479628 158.170141,44.6517364 C158.170141,56.3417879 154.099363,66.2618565 145.960724,74.4090263 C137.825004,82.5532802 127.900475,86.6239491 116.192975,86.6239491 C104.339569,86.6239491 94.333333,82.5736918 86.1771857,74.4615134 C78.0181203,66.352251 73.9444238,56.5429886 73.9444238,45.0308102 C73.9444238,37.3589405 75.7974304,30.2411018 79.5151162,23.6918736 C83.2298838,17.1397296 88.2986595,12.0076541 94.7156069,8.29564723 C101.129636,4.58364037 108.071845,2.73201087 115.542234,2.73201087 Z" id="Shape" fill="#686A6C" fill-rule="nonzero"></path>
                    <polygon id="Path" fill="#686A6C" points="179.837187 87.2771224 179.837187 2.44333162 181.684358 2.44333162 238.18501 67.4719766 238.18501 2.44333162 246.55418 2.44333162 246.55418 87.2771224 244.648648 87.2771224 188.611976 23.0416164 188.611976 87.2771224"></polygon>
                    <rect id="Rectangle" fill="#686A6C" x="269.560644" y="2.40542425" width="7.9431245" height="84.7113208"></rect>
                    <path d="M537.429532,53.6882716 L548.73725,24.7766078 L559.977851,53.6882716 L537.429532,53.6882716 Z M556.770836,2.45207948 L540.505231,2.45207948 L517.597984,63.684155 L563.666355,63.8707759 L572.514097,86.8338977 L589.185321,86.8338977 L556.770836,2.45207948 Z" id="Shape" fill="#686A6C" fill-rule="nonzero"></path>
                    <polygon id="Path" fill="#686A6C" points="606.513121 2.45207948 622.551113 2.45207948 622.551113 71.3793522 654.533715 71.3793522 654.533715 86.6618565 606.513121 86.6618565"></polygon>
                    <polygon id="Path" fill="#686A6C" points="671.578458 2.45207948 687.61645 2.45207948 687.61645 71.3793522 719.596134 71.3793522 719.596134 86.6618565 671.578458 86.6618565"></polygon>
                    <path d="M542.536243,122.306453 C542.536243,122.306453 503.299193,108.19033 494.646965,84.6965049 C484.961722,58.40045 520.875034,52.3994208 557.614173,53.4433316 C577.413622,54.0090263 601.610679,57.0153728 601.610679,57.0153728 C601.610679,57.0153728 544.444694,64.287757 523.787318,80.9465906 C503.617268,97.2117707 542.536243,122.306453 542.536243,122.306453 Z" id="Path" fill="#F36D23"></path>
                    <path d="M372.115077,66.6992493 C364.621343,75.1467622 355.373819,79.3836404 344.349159,79.3836404 C334.11531,79.3836404 325.641087,76.1090263 318.923573,69.5597982 C312.20606,63.01057 308.847303,54.8400726 308.847303,45.0512218 C308.847303,38.5778085 310.350135,32.7459045 313.352881,27.558426 C316.355627,22.3738634 320.592738,18.2448754 326.052542,15.168546 C331.515264,12.0980486 337.447804,10.55551 343.858915,10.55551 C349.718501,10.55551 355.099516,11.7335546 359.996122,14.07798 C364.679706,16.323263 368.715467,19.5832973 372.115077,23.8405872 L372.115077,12.9699182 C369.690119,10.9608273 367.011284,8.53767125 364.0669,7.09427502 C358.023473,4.12583591 351.247596,2.64453231 343.748026,2.64453231 C331.331423,2.64453231 320.998357,6.65396627 312.751748,14.6786661 C304.505139,22.70045 300.381835,32.5913591 300.381835,44.3426455 C300.381835,55.5136575 303.784363,65.0488205 310.595257,72.9423025 C318.713469,82.2937604 329.802327,86.9680315 343.858915,86.9680315 C351.247596,86.9680315 357.938847,85.5771224 363.929749,82.7923882 C366.903314,81.410227 369.631757,79.0541378 372.115077,77.1033659 L372.115077,66.6992493 Z" id="Path" fill="#686A6C"></path>
                    <path d="M30.6511853,40.8143436 C11.5258224,36.9011361 7.90151647,31.9206901 7.90151647,24.0913591 L7.90151647,23.8639148 C7.90151647,15.5796953 15.8008692,9.56408634 26.6854593,9.56408634 C35.8045865,9.56408634 43.0356895,12.2992493 50.132559,18.4285803 L50.8037268,19.0059388 L50.9700597,18.7989062 L50.9700597,9.43870041 C43.6251499,4.53406919 36.350275,2.46374329 26.9159909,2.46374329 C11.6979915,2.46374329 0.218104707,11.9085117 0.218104707,24.4354414 L0.218104707,24.6658016 C0.218104707,37.329781 8.2721178,44.1210332 28.0102861,48.1129714 C46.5520249,51.8453899 50.0683604,56.7062819 50.0683604,64.3781515 L50.0683604,64.6085117 C50.0683604,73.4963333 42.0581191,79.707311 30.5928229,79.707311 C19.4076663,79.707311 11.4878868,76.4239491 2.34249657,67.9997639 L1.69467377,67.4019937 L1.54876774,67.568203 L1.54876774,77.2316678 C10.3148023,83.8188033 19.3580583,86.813486 30.2484847,86.813486 C46.4411364,86.813486 57.7517721,77.4445323 57.7517721,64.0340692 L57.7517721,63.803709 C57.7517721,51.5596266 49.6452329,44.6808959 30.6511853,40.8143436 Z" id="Path" fill="#686A6C"></path>
                    <polygon id="Path" fill="#686A6C" points="493.389255 2.45207948 474.12674 59.7417879 473.709449 60.9752356 473.30383 59.7388719 454.312701 2.20713951 438.893351 2.20713951 419.902222 59.7388719 419.493685 60.9752356 419.079312 59.7417879 399.813879 2.45207948 380.679761 2.45207948 411.165368 87.058426 426.841513 87.058426 445.949367 31.8827827 446.357904 30.6989062 446.769359 31.8827827 465.877213 87.058426 481.553357 87.058426 512.033128 2.45207948"></polygon>
                    <path d="M74.7439889,198.01623 C75.8820559,199.984498 77.3557069,201.448306 79.170778,202.407654 C80.985849,203.367002 83.0489604,203.848134 85.3659482,203.848134 C86.8104179,203.848134 88.1644259,203.629438 89.4308903,203.194961 C90.7002728,202.754652 91.8033224,202.145218 92.7429573,201.360827 C93.6825921,200.570604 94.4267129,199.620004 94.9753196,198.509026 C95.51809,197.395133 95.7923934,196.138357 95.7923934,194.7387 C95.7923934,193.126179 95.4538914,191.793589 94.7768874,190.74093 C94.0969653,189.694103 93.1894297,188.833898 92.0571989,188.157397 C90.9162137,187.47798 89.640995,186.900622 88.2169521,186.419489 C86.7987454,185.938357 85.3338488,185.460141 83.8251805,184.979009 C82.3194302,184.500793 80.8516155,183.952594 79.4334088,183.337328 C78.012284,182.727894 76.7341472,181.931839 75.5960801,180.949164 C74.4580131,179.966488 73.5533956,178.730124 72.8734735,177.245905 C72.1964695,175.761685 71.8608856,173.927551 71.8608856,171.743503 C71.8608856,169.690673 72.2606682,167.865287 73.0719057,166.270261 C73.8802252,164.675236 74.9745204,163.345561 76.3518734,162.275407 C77.7292263,161.202337 79.3137659,160.397534 81.105492,159.852251 C82.8972181,159.304052 84.7794059,159.029953 86.7433011,159.029953 C89.279148,159.029953 91.6282352,159.481925 93.7905626,160.37129 C95.9587263,161.269404 97.8234054,162.765287 99.3991905,164.861856 L95.661078,167.547448 C94.5697008,166.019489 93.291564,164.87352 91.8266674,164.109541 C90.3617708,163.345561 88.6225709,162.960656 86.6119857,162.960656 C85.2142059,162.960656 83.8806247,163.147277 82.6112422,163.517603 C81.3447779,163.887929 80.2417283,164.436128 79.3020934,165.156368 C78.3595404,165.879524 77.6066653,166.783469 77.0376317,167.876951 C76.4715163,168.970433 76.1855405,170.259284 76.1855405,171.743503 C76.1855405,174.058769 76.7750009,175.8375 77.9568398,177.082611 C79.1386786,178.324807 80.6123296,179.310399 82.3836288,180.027723 C84.1549281,180.753795 86.0779696,181.38364 88.1527534,181.931839 C90.2304554,182.477122 92.1534969,183.20611 93.9247961,184.127551 C95.6960954,185.04316 97.1726645,186.320347 98.3486671,187.959112 C99.530506,189.597877 100.119966,191.85774 100.119966,194.7387 C100.119966,196.838186 99.7289382,198.695647 98.9410456,200.311085 C98.1560711,201.926522 97.0909571,203.291188 95.7602941,204.405081 C94.4267129,205.518975 92.8859452,206.361685 91.1379909,206.930296 C89.3900366,207.493074 87.5749655,207.778838 85.6956958,207.778838 C82.6345872,207.778838 79.8127645,207.242302 77.2360639,206.175064 C74.6564453,205.10491 72.4474279,203.302851 70.61193,200.768889 L74.7439889,198.01623 Z" id="Path" fill="#686A6C"></path>
                    <path d="M158.80921,188.906796 C158.80921,187.559627 158.534906,186.288272 157.989218,185.110227 C157.443529,183.92635 156.699408,182.891188 155.759773,181.993074 C154.820139,181.103709 153.705416,180.389301 152.415607,179.867345 C151.125798,179.342474 149.760117,179.080038 148.318566,179.080038 C146.176665,179.080038 144.390775,179.520347 142.972569,180.389301 C141.554362,181.264086 140.425049,182.27009 139.596303,183.407311 C138.767557,184.541616 138.17226,185.643846 137.825004,186.714001 C137.474829,187.787071 137.30266,188.518975 137.30266,188.906796 L158.80921,188.906796 Z M161.823628,200.903023 C160.291615,203.215373 158.403591,204.877465 156.15372,205.880553 C153.900931,206.88364 151.41761,207.3881 148.712512,207.3881 C146.392606,207.3881 144.294477,206.994447 142.415208,206.20714 C140.535938,205.419832 138.916381,204.320519 137.562373,202.897534 C136.208365,201.480381 135.169514,199.797877 134.448738,197.852937 C133.727962,195.910913 133.366115,193.756025 133.366115,191.399935 C133.366115,189.128409 133.736717,187.031839 134.480837,185.110227 C135.224958,183.185699 136.272564,181.514858 137.62949,180.097706 C138.983498,178.680553 140.57971,177.563743 142.415208,176.753109 C144.250705,175.94539 146.284636,175.542989 148.511162,175.542989 C150.831068,175.542989 152.873752,175.94539 154.645051,176.753109 C156.413432,177.563743 157.901674,178.633898 159.101022,179.966488 C160.303287,181.299078 161.213741,182.818289 161.823628,184.521205 C162.436434,186.221205 162.742836,187.947448 162.742836,189.694103 L162.742836,192.446762 L137.30266,192.446762 C137.30266,193.277808 137.463157,194.336299 137.792904,195.62515 C138.122652,196.914001 138.720867,198.170776 139.596303,199.39256 C140.471739,200.614344 141.638987,201.66117 143.103884,202.535956 C144.568781,203.413658 146.456805,203.848134 148.776711,203.848134 C150.787296,203.848134 152.733682,203.367002 154.610034,202.407654 C156.492222,201.448306 157.933773,200.136128 158.940525,198.476951 L161.823628,200.903023 Z" id="Shape" fill="#686A6C" fill-rule="nonzero"></path>
                    <path d="M223.136262,202.145218 C221.64802,203.938529 219.964265,205.256539 218.084995,206.107997 C216.205725,206.962371 214.171795,207.3881 211.986123,207.3881 C209.669135,207.3881 207.527234,206.994447 205.560421,206.20714 C203.593608,205.419832 201.909852,204.320519 200.512072,202.897534 C199.111374,201.480381 198.019997,199.797877 197.235023,197.852937 C196.44713,195.910913 196.050266,193.779352 196.050266,191.464086 C196.050266,189.145905 196.44713,187.020176 197.235023,185.078152 C198.019997,183.133212 199.111374,181.450707 200.512072,180.027723 C201.909852,178.61057 203.593608,177.50834 205.560421,176.723949 C207.527234,175.933726 209.669135,175.542989 211.986123,175.542989 C214.215567,175.542989 216.281596,176.003709 218.181293,176.919318 C220.086826,177.837843 221.779336,179.123778 223.267577,180.782954 L220.116007,183.144875 C218.980858,181.876436 217.734821,180.882097 216.377894,180.158941 C215.023886,179.441616 213.55899,179.080038 211.986123,179.080038 C210.150625,179.080038 208.487296,179.409541 207.001973,180.062714 C205.516649,180.718803 204.250185,181.605253 203.20258,182.71623 C202.149138,183.83304 201.352491,185.139387 200.806802,186.646934 C200.261114,188.157397 199.986811,189.76117 199.986811,191.464086 C199.986811,193.167002 200.261114,194.773692 200.806802,196.281239 C201.352491,197.78587 202.149138,199.100965 203.20258,200.211942 C204.250185,201.32292 205.516649,202.209369 207.001973,202.868375 C208.487296,203.521548 210.150625,203.848134 211.986123,203.848134 C213.649452,203.848134 215.166874,203.466145 216.544227,202.702165 C217.92158,201.938186 219.112174,200.923435 220.116007,199.654995 L223.136262,202.145218 Z" id="Path" fill="#686A6C"></path>
                    <path d="M281.16601,198.083297 C281.16601,198.648992 281.189355,199.340073 281.230209,200.147791 C281.27398,200.952594 281.308998,201.774893 281.326507,202.605939 C281.349852,203.434069 281.384869,204.209712 281.428641,204.929953 C281.469494,205.650193 281.492839,206.20714 281.492839,206.600793 L277.559213,206.600793 C277.515441,205.466488 277.483342,204.373006 277.459997,203.326179 C277.436652,202.276436 277.384125,201.599935 277.2995,201.290844 L277.09815,201.290844 C276.313175,202.955853 275.002939,204.381754 273.167441,205.586042 C271.331943,206.784498 269.187124,207.3881 266.738821,207.3881 C264.38098,207.3881 262.443348,207.011942 260.934679,206.27129 C259.426011,205.530639 258.24709,204.559627 257.394999,203.355338 C256.542908,202.156882 255.962202,200.768889 255.655799,199.197191 C255.352314,197.625493 255.197654,196.010055 255.197654,194.347963 L255.197654,176.330296 L259.134199,176.330296 L259.134199,194.149678 C259.134199,195.374378 259.242169,196.564086 259.461028,197.724635 C259.676969,198.879352 260.059243,199.917431 260.604932,200.83304 C261.153538,201.751565 261.918086,202.486385 262.904411,203.028752 C263.887817,203.576951 265.165954,203.848134 266.738821,203.848134 C268.183291,203.848134 269.546053,203.597362 270.838781,203.095819 C272.125672,202.594275 273.243312,201.82738 274.182947,200.800965 C275.122582,199.774549 275.863785,198.488615 276.412391,196.934412 C276.955162,195.383126 277.229465,193.560656 277.229465,191.464086 L277.229465,176.330296 L281.16601,176.330296 L281.16601,198.083297 Z" id="Path" fill="#686A6C"></path>
                    <path d="M318.211552,184.847791 C318.211552,184.279181 318.188207,183.591016 318.150271,182.783297 C318.103582,181.972663 318.068564,181.156196 318.048137,180.32515 C318.02771,179.497019 317.995611,178.721376 317.951839,177.99822 C317.908067,177.27798 317.884722,176.723949 317.884722,176.330296 L321.818349,176.330296 C321.862121,177.467517 321.897138,178.558083 321.917565,179.60491 C321.937992,180.654652 321.993436,181.331153 322.08098,181.634412 C323.087732,179.846934 324.374623,178.383126 325.950408,177.245905 C327.526193,176.111599 329.449235,175.542989 331.719533,175.542989 C332.113479,175.542989 332.498671,175.575064 332.869272,175.642131 C333.242792,175.706282 333.622147,175.782097 334.016094,175.872491 L333.557949,179.736128 C333.032687,179.56117 332.527852,179.473692 332.04928,179.473692 C330.34218,179.473692 328.868529,179.747791 327.622491,180.290158 C326.376454,180.841273 325.349275,181.593589 324.540956,182.552937 C323.732636,183.515201 323.131503,184.640759 322.737557,185.926694 C322.343611,187.215544 322.148097,188.603537 322.148097,190.090673 L322.148097,206.600793 L318.211552,206.600793 L318.211552,184.847791 Z" id="Path" fill="#686A6C"></path>
                    <path d="M388.832991,188.906796 C388.832991,187.559627 388.564524,186.288272 388.015917,185.110227 C387.470228,183.92635 386.729026,182.891188 385.786473,181.993074 C384.846838,181.103709 383.729198,180.389301 382.442306,179.867345 C381.152497,179.342474 379.786817,179.080038 378.345265,179.080038 C376.200446,179.080038 374.420393,179.520347 373.002186,180.389301 C371.578143,181.264086 370.451748,182.27009 369.623002,183.407311 C368.791338,184.541616 368.201877,185.643846 367.851703,186.714001 C367.501528,187.787071 367.326441,188.518975 367.326441,188.906796 L388.832991,188.906796 Z M391.850327,200.903023 C390.321232,203.215373 388.433208,204.877465 386.180419,205.880553 C383.92763,206.88364 381.447227,207.3881 378.736293,207.3881 C376.419305,207.3881 374.321177,206.994447 372.441907,206.20714 C370.562637,205.419832 368.94308,204.320519 367.589072,202.897534 C366.235064,201.480381 365.196213,199.797877 364.475437,197.852937 C363.754662,195.910913 363.392815,193.756025 363.392815,191.399935 C363.392815,189.128409 363.763416,187.031839 364.507537,185.110227 C365.251657,183.185699 366.302181,181.514858 367.656189,180.097706 C369.007279,178.680553 370.606409,177.563743 372.441907,176.753109 C374.277405,175.94539 376.308417,175.542989 378.540779,175.542989 C380.857767,175.542989 382.900451,175.94539 384.674669,176.753109 C386.440132,177.563743 387.928373,178.633898 389.130639,179.966488 C390.332905,181.299078 391.24044,182.818289 391.850327,184.521205 C392.463133,186.221205 392.769535,187.947448 392.769535,189.694103 L392.769535,192.446762 L367.326441,192.446762 C367.326441,193.277808 367.492774,194.336299 367.819604,195.62515 C368.146433,196.914001 368.750484,198.170776 369.623002,199.39256 C370.49552,200.614344 371.665687,201.66117 373.127665,202.535956 C374.592562,203.413658 376.486422,203.848134 378.80341,203.848134 C380.813995,203.848134 382.757463,203.367002 384.639651,202.407654 C386.518921,201.448306 387.960473,200.136128 388.964306,198.476951 L391.850327,200.903023 Z" id="Shape" fill="#686A6C" fill-rule="nonzero"></path>
                    <polygon id="Path" fill="#686A6C" points="428.901706 160.210913 456.702642 160.210913 456.702642 164.141616 433.229279 164.141616 433.229279 180.654652 455.068494 180.654652 455.068494 184.585356 433.229279 184.585356 433.229279 206.600793 428.901706 206.600793"></polygon>
                    <path d="M491.127711,176.330296 L495.061338,176.330296 L495.061338,206.600793 L491.127711,206.600793 L491.127711,176.330296 Z M490.144305,164.336985 C490.144305,163.505939 490.43028,162.809026 490.996396,162.243332 C491.562511,161.674721 492.265778,161.388958 493.094525,161.388958 C493.923271,161.388958 494.62362,161.674721 495.195572,162.243332 C495.761687,162.809026 496.047663,163.505939 496.047663,164.336985 C496.047663,165.170947 495.761687,165.86786 495.195572,166.433555 C494.62362,167.005081 493.923271,167.285013 493.094525,167.285013 C492.265778,167.285013 491.562511,167.005081 490.996396,166.433555 C490.43028,165.86786 490.144305,165.170947 490.144305,164.336985 Z" id="Shape" fill="#686A6C" fill-rule="nonzero"></path>
                    <path d="M532.436628,184.847791 C532.436628,184.279181 532.413283,183.591016 532.372429,182.783297 C532.325739,181.972663 532.29364,181.156196 532.276131,180.32515 C532.249868,179.497019 532.217769,178.721376 532.173997,177.99822 C532.130225,177.27798 532.109798,176.723949 532.109798,176.330296 L536.046343,176.330296 C536.087197,177.467517 536.119296,178.558083 536.142641,179.60491 C536.165986,180.654652 536.215594,181.331153 536.303138,181.634412 C537.309889,179.846934 538.599699,178.383126 540.175484,177.245905 C541.748351,176.111599 543.671392,175.542989 545.944608,175.542989 C546.338555,175.542989 546.720828,175.575064 547.094348,175.642131 C547.464949,175.706282 547.847223,175.782097 548.238251,175.872491 L547.780106,179.736128 C547.254845,179.56117 546.755846,179.473692 546.271438,179.473692 C544.567255,179.473692 543.093604,179.747791 541.847567,180.290158 C540.601529,180.841273 539.574351,181.593589 538.766031,182.552937 C537.954794,183.515201 537.353661,184.640759 536.962633,185.926694 C536.565768,187.215544 536.373173,188.603537 536.373173,190.090673 L536.373173,206.600793 L532.436628,206.600793 L532.436628,184.847791 Z" id="Path" fill="#686A6C"></path>
                    <path d="M580.565192,198.867688 C581.396857,200.486042 582.622467,201.719489 584.239106,202.570947 C585.855745,203.422405 587.559927,203.848134 589.351654,203.848134 C590.183318,203.848134 591.012064,203.716917 591.846647,203.457397 C592.675393,203.194961 593.419514,202.824635 594.073173,202.340587 C594.72975,201.862371 595.266684,201.282097 595.678139,200.605596 C596.09543,199.929095 596.302617,199.153452 596.302617,198.278666 C596.302617,196.881925 595.856145,195.832182 594.957363,195.132354 C594.0615,194.435441 592.958451,193.887242 591.648215,193.499421 C590.33506,193.102851 588.893509,192.764601 587.320642,192.481754 C585.747775,192.19599 584.303305,191.758597 582.99015,191.169575 C581.679914,190.580553 580.573947,189.76117 579.681002,188.714344 C578.785139,187.664601 578.335748,186.177465 578.335748,184.255853 C578.335748,182.774549 578.642151,181.482783 579.254956,180.389301 C579.864843,179.298735 580.667326,178.39479 581.647815,177.671634 C582.631222,176.951393 583.734271,176.417774 584.956964,176.064944 C586.182575,175.717946 587.428612,175.542989 588.697995,175.542989 C591.19007,175.542989 593.340725,176.003709 595.155796,176.919318 C596.967949,177.837843 598.380319,179.278323 599.387071,181.240759 L595.844472,183.337328 C595.100351,181.943503 594.172389,180.882097 593.057667,180.158941 C591.942945,179.441616 590.489721,179.080038 588.697995,179.080038 C587.997646,179.080038 587.262279,179.187929 586.50065,179.409541 C585.736102,179.628237 585.047426,179.931496 584.437538,180.32515 C583.821815,180.718803 583.311144,181.223263 582.893852,181.832697 C582.479479,182.447963 582.269375,183.144875 582.269375,183.92635 C582.269375,185.282268 582.718765,186.288272 583.61171,186.944361 C584.510491,187.60045 585.616459,188.110742 586.926695,188.481067 C588.236931,188.857225 589.681401,189.172148 591.257186,189.434584 C592.827135,189.694103 594.271605,190.119832 595.584759,190.711771 C596.892077,191.300793 597.998045,192.155167 598.893908,193.269061 C599.786853,194.377122 600.236244,195.9634 600.236244,198.01623 C600.236244,199.587929 599.941514,200.952594 599.354971,202.113143 C598.762593,203.270776 597.951355,204.241788 596.927095,205.029095 C595.896998,205.813486 594.72975,206.402508 593.419514,206.796162 C592.106359,207.189815 590.729007,207.3881 589.287455,207.3881 C586.664064,207.3881 584.271205,206.88364 582.10596,205.880553 C579.943632,204.877465 578.268631,203.326179 577.08971,201.229609 L580.565192,198.867688 Z" id="Path" fill="#686A6C"></path>
                    <path d="M649.482448,179.867345 L640.827302,179.867345 L640.827302,199.587929 C640.827302,200.943846 641.197904,201.993589 641.942025,202.737157 C642.686145,203.477808 643.713324,203.848134 645.02356,203.848134 C645.764763,203.848134 646.520556,203.748992 647.288022,203.553623 C648.049651,203.355338 648.782099,203.107483 649.482448,202.798392 L649.809278,206.338357 C649.065157,206.600793 648.215984,206.842817 647.255922,207.058597 C646.292942,207.277294 645.440851,207.3881 644.69673,207.3881 C643.296033,207.3881 642.093767,207.181067 641.092851,206.76117 C640.083182,206.350021 639.274862,205.793074 638.664975,205.093246 C638.05217,204.396333 637.602779,203.576951 637.319721,202.635098 C637.036664,201.699078 636.893676,200.681411 636.893676,199.587929 L636.893676,179.867345 L630.336659,179.867345 L630.336659,176.330296 L636.893676,176.330296 L636.893676,167.614515 L640.827302,167.614515 L640.827302,176.330296 L649.482448,176.330296 L649.482448,179.867345 Z" id="Path" fill="#686A6C"></path>
                    <path d="M1.27738252,134.27352 L718.866604,134.27352" id="Path" stroke="#686A6C" stroke-width="0.5" fill="#686A6C" stroke-linecap="round"></path>
                    <path d="M16.2385873,183.486042 C16.2385873,187.711256 12.8097955,191.1375 8.58143859,191.1375 C4.35308172,191.1375 0.924289913,187.711256 0.924289913,183.486042 C0.924289913,179.260827 4.35308172,175.834584 8.58143859,175.834584 C12.8097955,175.834584 16.2385873,179.260827 16.2385873,183.486042 Z" id="Path" fill="#F36D23"></path>
                    <path d="M719.173007,183.486042 C719.173007,187.711256 715.750051,191.1375 711.521694,191.1375 C707.293337,191.1375 703.864545,187.711256 703.864545,183.486042 C703.864545,179.260827 707.293337,175.834584 711.521694,175.834584 C715.750051,175.834584 719.173007,179.260827 719.173007,183.486042 Z" id="Path" fill="#F36D23"></path>
                    <path d="M731.041003,8.13818583 C731.432032,8.13818583 731.750107,8.10611035 731.995229,8.04487536 C732.240351,7.98072442 732.430029,7.884498 732.573017,7.75328017 C732.710168,7.62789423 732.806466,7.47043282 732.856074,7.28089595 C732.911519,7.09427502 732.937782,6.88141053 732.937782,6.63938651 C732.937782,6.40611035 732.914437,6.19907776 732.873583,6.02412065 C732.826893,5.84624758 732.742268,5.69753402 732.616789,5.5838119 C732.491309,5.46425787 732.316222,5.37969526 732.103199,5.32137622 C731.88434,5.26888908 731.598364,5.23681361 731.254026,5.23681361 L730.045924,5.23681361 L730.045924,8.13818583 L731.041003,8.13818583 Z M731.254026,3.40851173 C732.663479,3.40851173 733.696493,3.6592836 734.35307,4.16665924 C735.006729,4.67111893 735.333559,5.39135907 735.333559,6.33321155 C735.333559,7.00388051 735.158472,7.58998685 734.814133,8.09153059 C734.466877,8.59015838 733.927025,8.95465238 733.197495,9.18209663 C733.366746,9.28415495 733.506815,9.40954089 733.62354,9.55825444 C733.737347,9.70405204 733.851154,9.8760932 733.956206,10.071462 L736.001809,13.5385289 L733.684821,13.5385289 C733.346319,13.5385289 733.107033,13.4160589 732.969881,13.165287 L731.344488,10.193932 C731.271535,10.0889577 731.183991,10.010227 731.090611,9.95190795 C730.994313,9.89650487 730.854244,9.86734535 730.667484,9.86734535 L730.045924,9.86734535 L730.045924,13.5385289 L727.618048,13.5385289 L727.618048,3.40851173 L731.254026,3.40851173 Z M731.303634,15.4922167 C731.936866,15.4922167 732.55259,15.4076541 733.144968,15.2443608 C733.731511,15.0781515 734.277199,14.8448754 734.78787,14.5445323 C735.295623,14.2412733 735.756686,13.8826112 736.176896,13.4568822 C736.591269,13.0369851 736.950198,12.5675169 737.244928,12.0484774 C737.53674,11.526522 737.767272,10.9695752 737.927768,10.3776369 C738.091183,9.78278274 738.169972,9.15585306 738.169972,8.49976387 C738.169972,7.84950658 738.091183,7.21966095 737.927768,6.6160589 C737.767272,6.01537279 737.53674,5.44967811 737.244928,4.9277227 C736.950198,4.4057673 736.591269,3.93046713 736.176896,3.50473814 C735.756686,3.07900915 735.295623,2.71451516 734.78787,2.4083402 C734.277199,2.10508119 733.731511,1.86888908 733.144968,1.70267982 C732.55259,1.53938651 731.936866,1.4548239 731.303634,1.4548239 C730.655811,1.4548239 730.051761,1.53938651 729.471054,1.70267982 C728.890348,1.86888908 728.347578,2.10508119 727.842743,2.4083402 C727.33499,2.71451516 726.879763,3.07900915 726.46539,3.50473814 C726.059771,3.93046713 725.706679,4.4057673 725.409031,4.9277227 C725.120137,5.44967811 724.892523,6.01537279 724.732027,6.6160589 C724.577366,7.21966095 724.498577,7.84950658 724.498577,8.49976387 C724.498577,9.47952373 724.673664,10.3951327 725.02092,11.2465906 C725.371095,12.0980486 725.855503,12.8357845 726.462472,13.4627141 C727.069441,14.0925598 727.796053,14.5882716 728.618963,14.9498496 C729.44771,15.3114277 730.340654,15.4922167 731.303634,15.4922167 Z M731.303634,0.157225277 C732.065264,0.157225277 732.806466,0.256367644 733.521406,0.454652378 C734.233427,0.655853064 734.892923,0.935784454 735.511564,1.2973625 C736.133124,1.66185649 736.693403,2.09341739 737.204074,2.60370898 C737.714745,3.11108463 738.149545,3.6709474 738.508474,4.28912922 C738.870321,4.90731104 739.153379,5.57214809 739.351811,6.28364037 C739.553161,6.99513265 739.652378,7.73578445 739.652378,8.49976387 C739.652378,9.26374329 739.553161,9.99856318 739.351811,10.7100555 C739.153379,11.4186318 738.870321,12.0834688 738.508474,12.6958188 C738.149545,13.3110846 737.714745,13.8709474 737.204074,14.381239 C736.693403,14.8886146 736.133124,15.3230915 735.511564,15.6817536 C734.892923,16.0433316 734.233427,16.326179 733.521406,16.5244637 C732.806466,16.7256644 732.065264,16.8248068 731.303634,16.8248068 C730.530332,16.8248068 729.792048,16.7256644 729.082944,16.5244637 C728.376759,16.326179 727.717264,16.0433316 727.101541,15.6817536 C726.488735,15.3230915 725.925538,14.8886146 725.420703,14.381239 C724.907114,13.8709474 724.475232,13.3110846 724.113385,12.6958188 C723.74862,12.0834688 723.471398,11.4215477 723.272966,10.7158874 C723.071616,10.007311 722.969482,9.26957519 722.969482,8.49976387 C722.969482,7.73578445 723.071616,6.99513265 723.272966,6.28364037 C723.471398,5.57214809 723.74862,4.90731104 724.113385,4.28912922 C724.475232,3.6709474 724.907114,3.11108463 725.420703,2.60370898 C725.925538,2.09341739 726.488735,1.66185649 727.101541,1.2973625 C727.717264,0.935784454 728.376759,0.655853064 729.082944,0.454652378 C729.792048,0.256367644 730.530332,0.157225277 731.303634,0.157225277 Z" id="Shape" fill="#686A6C" fill-rule="nonzero"></path>
                </g>
                <path d="M808.5,4.26325641e-14 L808.5,240" id="Path-4" stroke="#9B9B9B" fill-rule="nonzero"></path>
            </g>
            <g id="Group-47" transform="translate(871.000000, 0.000000)">
                <g id="Path" transform="translate(186.514030, 131.810050)" fill="#9D9DA0">
                    <path d="M1.04613253,0.848431477 C0.973050676,0.676257752 0.868648046,0.519736179 0.70682396,0.436258008 C0.868648046,0.519736179 0.973050676,0.676257752 1.04613253,0.848431477 Z"></path>
                </g>
                <g id="Path" transform="translate(172.856608, 163.509168)" fill="#9D9DA0">
                    <path d="M0.750141996,12.6049176 C0.56221725,13.2623082 0.41605356,13.9614378 0.30121066,14.6814371 C0.410833428,13.9614378 0.567437382,13.2675256 0.750141996,12.6049176 C1.77850796,11.744049 2.80165379,10.877963 3.59511383,10.0170944 C4.41989465,9.25013865 5.35429825,4.37710048 5.87109129,0.57884375 C5.35429825,4.37710048 4.41989465,9.25013865 3.59511383,10.0170944 C2.80165379,10.877963 1.77850796,11.744049 0.750141996,12.6049176 Z"></path>
                </g>
                <g id="Path" transform="translate(184.905451, 124.985137)" fill="#9D9DA0">
                    <path d="M1.18263444,0.499438747 C1.12521299,1.53769849 0.545778362,4.50117352 0.128167818,6.67160594 C0.545778362,4.50117352 1.12521299,1.53769849 1.18263444,0.499438747 L1.18263444,0.489003976 C1.18263444,0.462917047 1.18263444,0.436830119 1.18263444,0.415960577 L1.18263444,0.499438747 Z"></path>
                </g>
                <g id="Path" transform="translate(182.492583, 192.811151)" fill="#9D9DA0">
                    <path d="M26.4544603,10.5220365 C26.4649005,10.5324713 26.4805609,10.5376887 26.4962213,10.5429061 C26.4805609,10.5376887 26.4701206,10.5272539 26.4544603,10.5220365 C20.858479,7.58986581 11.6345061,6.44725836 1.10028007,2.78987104 C1.11072034,2.7324798 0.703550056,1.78813299 0.19719727,0.671612472 C0.698329924,1.78813299 1.11072034,2.7324798 1.10028007,2.78987104 C11.6345061,6.44725836 20.858479,7.58986581 26.4544603,10.5220365 Z"></path>
                </g>
                <g id="Path" transform="translate(184.101162, 133.417577)" fill="#9D9DA0">
                    <path d="M0.838494989,0.331338184 C0.687111169,0.498294528 0.567048137,0.633946552 0.504406552,0.696555182 C0.561828008,0.633946552 0.687111169,0.503511917 0.838494989,0.331338184 Z"></path>
                </g>
                <g id="Path" transform="translate(184.905451, 131.810050)" fill="#9D9DA0">
                    <path d="M1.44364103,0.488431868 C1.61068525,0.389301537 1.77250934,0.342345065 1.91867303,0.337127684 C1.76728921,0.342345065 1.61068525,0.389301537 1.44364103,0.488431868 C1.22961563,0.618866511 0.488356914,1.43277866 0.034205445,1.93886507 C0.488356914,1.43277866 1.22961563,0.618866511 1.44364103,0.488431868 Z"></path>
                </g>
                <g id="Path" transform="translate(172.052319, 177.962757)" fill="#9D9DA0">
                    <path d="M1.4500289,7.99131845 C0.760971507,5.18958237 0.724430582,2.62262864 1.07939954,0.337413738 C0.724430582,2.61741125 0.760971507,5.18958237 1.4500289,7.99131845 Z"></path>
                </g>
                <g id="Path" transform="translate(184.101162, 142.639626)" fill="#9D9DA0">
                    <path d="M3.98623447,0.610148064 C3.50598234,3.7927533 2.12786755,6.70405447 0.488746158,9.56318176 C2.12786755,6.70405447 3.50598234,3.7927533 3.98623447,0.610148064 Z"></path>
                </g>
                <g id="Path" transform="translate(149.973108, 84.853579)" fill="#9D9DA0">
                    <path d="M0.800786332,1.07277905 C0.774685673,1.07277905 0.748585013,1.07277905 0.722484354,1.07277905 C0.748585013,1.07277905 0.774685673,1.07277905 0.800786332,1.07277905 Z"></path>
                </g>
                <g id="Path" transform="translate(176.073766, 185.986238)" fill="#9D9DA0">
                    <path d="M0.393616046,0.312184976 C0.685943429,0.374793598 0.941729887,0.447837 1.19751635,0.526097782 C0.941729887,0.447837 0.685943429,0.374793598 0.393616046,0.312184976 Z"></path>
                </g>
                <g id="Path" transform="translate(177.272451, 185.986238)" fill="#9D9DA0">
                    <path d="M0.296379772,0.604358565 C0.468644123,0.661749814 0.614807815,0.745227978 0.776631901,0.818271379 C0.614807815,0.745227978 0.468644123,0.661749814 0.296379772,0.604358565 Z"></path>
                </g>
                <g id="Path" transform="translate(178.881030, 186.790001)" fill="#9D9DA0">
                    <path d="M0.368683126,0.760594086 C0.426104574,0.807550557 0.478305893,0.88059395 0.530507212,0.927550421 C0.478305893,0.88059395 0.426104574,0.807550557 0.368683126,0.760594086 Z"></path>
                </g>
                <g id="Path" transform="translate(178.076740, 185.986238)" fill="#9D9DA0">
                    <path d="M0.405613295,1.01131464 C0.457814614,1.04783635 0.504795804,1.08957544 0.562217252,1.12609713 C0.504795804,1.08957544 0.457814614,1.04783635 0.405613295,1.01131464 Z"></path>
                </g>
                <g id="Path" transform="translate(174.465187, 185.591433)" fill="#9D9DA0">
                    <path d="M0.665841394,0.503511917 C0.770244032,0.519164069 0.853766139,0.534816228 0.958168777,0.550468388 C0.853766139,0.534816228 0.770244032,0.519164069 0.665841394,0.503511917 Z"></path>
                </g>
                <g id="Path" transform="translate(184.905451, 110.136744)" fill="#9D9DA0">
                    <path d="M1.17219418,10.339142 C1.17741431,8.71131766 1.2087351,7.08871074 1.15653379,5.46610381 C1.08867207,3.41045387 0.587539416,1.40697779 0.243010721,0.316544196 C0.587539416,1.40697779 1.08867207,3.41045387 1.15653379,5.46610381 C1.2087351,7.08871074 1.17741431,8.71131766 1.17219418,10.339142 Z"></path>
                </g>
                <g id="Path" transform="translate(164.024924, 87.659675)" fill="#9D9DA0">
                    <path d="M2.5868499,1.29276742 C5.23867686,2.44059225 7.55119525,4.01102533 9.54528563,5.73797997 C7.55119525,4.01102533 5.23867686,2.44059225 2.5868499,1.29276742 C1.88735224,0.932767811 1.20351497,0.671898527 0.550998495,0.510159573 C0.47791665,0.48929003 0.316092564,0.447550945 0.190809401,0.411029246 C0.316092564,0.447550945 0.47791665,0.48929003 0.550998495,0.510159573 C1.20351497,0.671898527 1.88735224,0.932767811 2.5868499,1.29276742 Z"></path>
                </g>
                <g id="Path" transform="translate(88.530210, 85.248384)" fill="#9D9DA0">
                    <path d="M62.1079605,146.931728 L61.930476,0.677974077 C56.5641805,0.719713162 49.3656187,2.58753721 48.1284475,2.92144989 C47.8517805,2.98927591 47.5751135,3.07797147 47.2984465,3.17710179 C36.8895037,6.59448938 29.6439608,19.6431708 29.0697463,20.6657784 C28.3911291,21.8814293 27.8169146,23.1701235 27.2322599,24.4431656 C26.9921338,24.9701215 26.1360323,27.6153361 26.04729,30.3544635 C25.9428873,33.5996774 26.0003088,36.8501086 26.0159692,40.1005399 C26.0159692,40.1370615 26.0211893,40.1788006 26.0211893,40.2205398 L26.0211893,40.2257571 C26.1099315,41.8848857 27.5350276,48.4953133 27.5037068,48.8657477 C27.2688008,48.6153132 26.0420698,47.2222712 25.7601828,47.0500975 C25.1024461,46.6535762 24.5177914,47.0866192 24.4551498,47.6814012 C24.2098036,50.0187899 23.9853379,52.3613961 23.8548346,54.7092196 C23.6147086,59.2431277 25.3373521,63.1352974 27.5193672,66.9544237 C28.4381103,68.5613785 28.9235826,70.5335502 29.534338,72.3387656 C29.7327031,72.9231128 29.9258479,73.533547 30.2286155,74.0605029 C30.6879872,74.8535455 31.4710069,75.0309366 32.3218884,75.0883278 C32.5724547,75.1091974 32.9952854,75.4065884 33.0109458,75.604849 C33.2667323,78.9231063 34.5717652,86.3996195 35.5635902,87.5526624 C36.0751632,88.1578786 37.7142845,89.9735287 38.3981218,90.5943982 C39.593532,94.0796113 39.6613938,97.1369997 38.8052921,100.705692 C34.0601923,101.039604 32.5881151,101.696995 30.8237106,105.109165 C30.0772317,106.564815 28.4328902,110.321333 28.4694311,110.58742 C18.2014319,114.150894 9.26456622,115.199589 3.75732716,118.084803 C2.61933843,118.679585 1.55965167,119.300453 0.541725969,119.947409 C15.674888,136.507391 37.3854162,146.963032 61.5963876,146.963032 C61.7686519,146.963032 61.930476,146.936945 62.1079605,146.931728 Z"></path>
                </g>
                <g id="Path" transform="translate(149.973108, 84.853579)" fill="#9D9DA0">
                    <path d="M0.649402504,1.07277905 C0.618081716,1.07277905 0.586760928,1.07277905 0.555440131,1.07277905 C0.586760928,1.07277905 0.618081716,1.07277905 0.649402504,1.07277905 Z"></path>
                </g>
                <g id="Path" transform="translate(177.272451, 185.986238)" fill="#65666C">
                    <path d="M0.776631901,0.818271379 C0.917575456,0.88088001 1.07417941,0.938271251 1.20990284,1.01131464 C1.07417941,0.938271251 0.917575456,0.88088001 0.776631901,0.818271379 Z"></path>
                </g>
                <g id="Path" transform="translate(178.076740, 186.790001)" fill="#65666C">
                    <path d="M0.562217252,0.322333687 C0.776242657,0.457985719 0.985047925,0.593637743 1.17297267,0.760594086 C0.985047925,0.593637743 0.776242657,0.457985719 0.562217252,0.322333687 Z"></path>
                </g>
                <g id="Path" transform="translate(180.489609, 189.596097)" fill="#65666C">
                    <path d="M0.717653469,0.761452248 C0.999540587,1.30927773 1.40671087,2.16492898 1.80866102,3.031015 C1.40671087,2.16492898 0.999540587,1.30927773 0.717653469,0.761452248 Z"></path>
                </g>
                <g id="Path" transform="translate(178.881030, 187.593765)" fill="#65666C">
                    <path d="M0.530507212,0.123786981 C1.1673633,0.755090645 1.71547713,1.58465496 2.32623256,2.76378411 C1.72069727,1.58465496 1.1673633,0.755090645 0.530507212,0.123786981 Z"></path>
                </g>
                <g id="Path" transform="translate(184.905451, 119.767752)" fill="#65666C">
                    <path d="M1.18263444,5.6333462 C1.18263444,5.61247666 1.18263444,5.5968245 1.18263444,5.58117235 C1.19829484,3.95856542 1.16697405,2.3307411 1.17219418,0.708134172 C1.16697405,2.3307411 1.19829484,3.95856542 1.18263444,5.58117235 C1.18263444,5.5968245 1.18263444,5.61247666 1.18263444,5.6333462 Z"></path>
                </g>
                <g id="Path" transform="translate(186.514030, 131.006287)" fill="#65666C">
                    <path d="M0.310093938,1.14089113 C0.45625763,1.13567374 0.591981056,1.17219544 0.70682396,1.24002145 C0.591981056,1.17219544 0.45625763,1.13567374 0.310093938,1.14089113 Z"></path>
                </g>
                <g id="Path" transform="translate(149.973108, 84.853579)" fill="#65666C">
                    <path d="M0.487578418,1.07277905 L0.555440131,1.07277905 L0.487578418,1.07277905 Z"></path>
                </g>
                <g id="Path" transform="translate(208.593241, 203.245921)" fill="#65666C">
                    <path d="M3.0421691,1.44378554 C3.04738924,1.43856816 3.04738924,1.43335077 3.05260937,1.42813338 C2.20694801,1.02639469 1.31952561,0.588134302 0.395562282,0.108134821 C1.31430548,0.588134302 2.19650776,1.02639469 3.0421691,1.44378554 Z"></path>
                </g>
                <g id="Path" transform="translate(175.269477, 185.182474)" fill="#65666C">
                    <path d="M0.153879233,0.959426844 C0.519288458,1.00638331 0.879477555,1.05333979 1.19790559,1.11594842 C0.879477555,1.05333979 0.519288458,1.00638331 0.153879233,0.959426844 Z"></path>
                </g>
                <g id="Path" transform="translate(172.052319, 177.158993)" fill="#65666C">
                    <path d="M1.1055002,1.03161208 C1.09505994,1.06813378 1.08461968,1.10465548 1.07939954,1.14117718 C1.08461968,1.10465548 1.09505994,1.06813378 1.1055002,1.03161208 Z"></path>
                </g>
                <g id="Path" transform="translate(176.878056, 185.986238)" fill="#65666C">
                    <path d="M0.393226802,0.526097782 C0.487189174,0.557402102 0.596811941,0.573054253 0.690774314,0.604358565 C0.596811941,0.573054253 0.487189174,0.557402102 0.393226802,0.526097782 Z"></path>
                </g>
                <g id="Path" transform="translate(178.881030, 159.899310)" fill="#65666C">
                    <path d="M0.217299306,0.953923403 C0.185978517,1.36609687 0.133777198,1.86174851 0.0711356139,2.409574 C0.133777198,1.86174851 0.185978517,1.36609687 0.217299306,0.953923403 C0.2329597,0.755662748 0.655790381,0.45827177 0.906356702,0.437402229 C1.32918738,0.411315299 1.74157779,0.353924058 2.09654676,0.202619874 C1.74157779,0.353924058 1.32918738,0.411315299 0.906356702,0.437402229 C0.655790381,0.45827177 0.2329597,0.755662748 0.217299306,0.953923403 Z"></path>
                </g>
                <g id="Path" transform="translate(180.884003, 151.875829)" fill="#65666C">
                    <path d="M0.99665593,7.43305818 C0.766970131,7.82436211 0.453762217,8.06957926 0.0935731287,8.22610078 C0.453762217,8.06957926 0.766970131,7.82436211 0.99665593,7.43305818 C1.30464371,6.90610224 1.49256845,6.29566812 1.69093346,5.71132093 C2.30168888,3.90610551 2.78716114,1.93393374 3.70590434,0.326978967 C2.78716114,1.93393374 2.30168888,3.90610551 1.69093346,5.71132093 C1.49256845,6.29566812 1.30464371,6.90610224 0.99665593,7.43305818 Z"></path>
                </g>
                <g id="Path" transform="translate(186.908425, 132.204855)" fill="#65666C">
                    <path d="M1.34601552,7.75274898 C1.40343697,8.89013903 1.34601552,9.98057266 1.17897129,11.0449193 C1.34601552,9.98057266 1.40343697,8.89013903 1.34601552,7.75274898 C1.21551222,5.40492546 0.99104655,3.06231931 0.740480228,0.724930547 C0.730039962,0.62580022 0.693499038,0.537104665 0.651737984,0.453626495 C0.693499038,0.537104665 0.730039962,0.62580022 0.740480228,0.724930547 C0.99104655,3.06231931 1.21551222,5.40492546 1.34601552,7.75274898 Z"></path>
                </g>
                <g id="Path" transform="translate(150.367502, 85.657342)" fill="#65666C">
                    <path d="M13.8482312,2.41336111 C12.0264052,1.88118777 5.43859885,0.310754703 0.406391788,0.269015613 C5.43859885,0.310754703 12.0264052,1.88118777 13.8482312,2.41336111 Z"></path>
                </g>
                <g id="Path" transform="translate(172.856608, 185.591433)" fill="#65666C">
                    <path d="M2.27442048,0.503511917 C1.77850796,0.446120675 1.24083438,0.399164204 0.645739359,0.362642504 C1.24605452,0.399164204 1.77850796,0.446120675 2.27442048,0.503511917 Z"></path>
                </g>
                <g id="Path" transform="translate(184.101162, 131.006287)" fill="#65666C">
                    <path d="M0.504406552,3.1078455 C0.488746158,2.96697609 0.687111169,1.95480329 0.932457362,0.650456873 C0.687111169,1.95480329 0.488746158,2.97219348 0.504406552,3.1078455 Z"></path>
                </g>
                <g id="Path" transform="translate(149.973108, 84.853579)" fill="#65666C">
                    <path d="M0.722484354,1.07277905 L0.649402504,1.07277905 L0.722484354,1.07277905 Z"></path>
                </g>
                <g id="Path" transform="translate(172.856608, 92.877060)" fill="#65666C">
                    <path d="M10.1829202,13.0371025 C10.8615373,14.2527533 11.4357518,15.5414476 12.0151864,16.8144897 C12.077828,16.9501417 12.1770105,17.211011 12.2918534,17.5762279 C12.1770105,17.211011 12.077828,16.9501417 12.0151864,16.8144897 C11.4357518,15.5414476 10.8615373,14.2527533 10.1829202,13.0371025 C9.76530965,12.2910163 6.69587213,5.70667565 0.713601073,0.520594344 C6.69587213,5.70667565 9.76530965,12.2910163 10.1829202,13.0371025 Z"></path>
                </g>
                <g id="Path" transform="translate(172.856608, 185.591433)" fill="#65666C">
                    <path d="M0.635299094,0.357425114 C0.650959488,0.430468516 0.66661989,0.498294528 0.682280284,0.571337929 L0.682280284,0.56612054 C0.66661989,0.493077146 0.650959488,0.425251126 0.635299094,0.357425114 Z"></path>
                </g>
                <g id="Path" transform="translate(172.856608, 185.591433)" fill="#65666C">
                    <path d="M0.635299094,0.357425114 C0.650959488,0.425251126 0.66661989,0.493077146 0.682280284,0.560903158 C0.671840019,0.519164069 0.66661989,0.482642368 0.661399753,0.440903286 C0.650959488,0.409598975 0.650959488,0.383512045 0.645739359,0.362642504 L0.635299094,0.357425114 Z"></path>
                </g>
                <g id="Path" transform="translate(172.856608, 185.591433)" fill="#65666C">
                    <path d="M0.661399753,0.54854857 C0.656179625,0.51609259 0.650959488,0.47714542 0.645739359,0.45118064 C0.650959488,0.47714542 0.650959488,0.5096014 0.661399753,0.54854857 Z"></path>
                </g>
                <g id="Path" transform="translate(172.856608, 185.591433)" fill="#65666C">
                    <path d="M0.682280284,0.571337929 C0.671840019,0.524381458 0.671840019,0.482642368 0.661399753,0.440903286 C0.66661989,0.482642368 0.671840019,0.519164069 0.682280284,0.560903158 C0.682280284,0.560903158 0.682280284,0.56612054 0.682280284,0.571337929 Z"></path>
                </g>
                <g id="Path" transform="translate(172.856608, 184.787670)" fill="#65666C">
                    <path d="M0.645739359,1.16640594 L0.635299094,1.16118856 L0.645739359,1.16640594 Z"></path>
                </g>
                <g id="Path" transform="translate(150.367502, 85.248384)" fill="#65666C">
                    <path d="M0.270668361,146.931728 C24.5129605,146.785641 46.2234886,136.178696 61.2679085,119.441323 C60.4222472,119.023932 59.5400449,118.585671 58.6213017,118.105672 C58.6056413,118.100455 58.5899809,118.095237 58.5795406,118.084803 C52.9835593,115.152632 43.7595865,114.010025 33.2253605,110.352637 C33.2358007,110.295246 32.8234103,109.350899 32.3222776,108.234379 C32.1969945,107.95264 32.061271,107.665683 31.9307677,107.378728 C31.5288176,106.512641 31.1216473,105.65699 30.8397602,105.109165 C30.2290048,103.930035 29.680891,103.100471 29.0440349,102.469168 C28.9918336,102.422211 28.9396322,102.349168 28.8822108,102.302211 C28.694286,102.135255 28.4854808,101.999603 28.2714553,101.863951 C28.2140339,101.82743 28.1670528,101.78569 28.1148514,101.749169 C27.979128,101.676125 27.822524,101.618734 27.6815805,101.556125 C27.5197564,101.483082 27.3735927,101.399604 27.2013283,101.342212 C27.107366,101.310908 26.9977432,101.295256 26.9037808,101.263951 C26.6479944,101.18569 26.3922079,101.112648 26.0998806,101.050038 C25.7814525,100.98743 25.4212634,100.940473 25.0558542,100.893518 C24.9514515,100.877865 24.8679294,100.862213 24.7635268,100.846561 C24.2676142,100.78917 23.7351608,100.742213 23.1348457,100.705692 C23.1400658,100.726561 23.1452859,100.757865 23.1505061,100.783952 C23.1609463,100.825691 23.1609463,100.867431 23.1713866,100.914386 L23.1713866,100.909169 L23.1713866,100.914386 C23.1557262,100.841344 23.1400658,100.773517 23.1244054,100.700474 L23.1348457,100.705692 C22.4457883,97.9039556 22.4092473,95.331784 22.7642164,93.0517868 C22.7694364,93.0152646 22.7798767,92.9787432 22.790317,92.9422218 C22.9051599,92.2222225 23.0513236,91.5230922 23.2392483,90.8657021 C24.2676142,90.0048337 25.2907601,89.1387473 26.0842202,88.2778788 C26.909001,87.5109229 27.8434046,82.6378852 28.3601976,78.8396281 C28.4489398,78.2083244 28.5272418,77.6083251 28.5846633,77.0604996 C28.6473048,76.5126741 28.6995062,76.0170225 28.730827,75.604849 C28.7464874,75.4065884 29.169318,75.1091974 29.4198844,75.0883278 C29.8427151,75.062241 30.2551054,75.0048497 30.6100745,74.8535455 C30.9702635,74.697024 31.2834714,74.4518068 31.5131572,74.0605029 C31.821145,73.533547 32.0090698,72.9231128 32.2074347,72.3387656 C32.8181902,70.5335502 33.3036624,68.5613785 34.2224057,66.9544237 C35.861527,64.0952963 37.2396418,61.1839952 37.719894,58.0013899 C37.8869382,56.9370433 37.9443596,55.8466097 37.8869382,54.7092196 C37.7564349,52.3613961 37.5319692,50.0187899 37.2814029,47.6814012 C37.2709626,47.5822708 37.2344217,47.4935753 37.1926606,47.4100972 C37.1195788,47.2379234 37.0151761,47.0814018 36.8533521,46.9979236 C36.7385092,46.9300977 36.6027857,46.8935759 36.456622,46.8987933 C36.3104583,46.9040107 36.1486342,46.9509671 35.9815901,47.0500975 C35.7675647,47.1805321 35.0263059,47.9944443 34.5721544,48.5005307 C34.4207706,48.6727045 34.2954875,48.803139 34.2380661,48.8657477 C34.2224057,48.7300957 34.4207706,47.7127055 34.6661168,46.4083591 C35.0837274,44.2379267 35.663162,41.2744517 35.7205835,40.2361918 L35.7205835,40.2257571 L35.7205835,40.1005399 C35.7362439,38.477933 35.7049231,36.8501086 35.7101432,35.2275017 C35.7153633,33.5996774 35.7466841,31.9770705 35.6944828,30.3544635 C35.626621,28.2988136 35.1254884,26.2953375 34.7809597,25.2049039 C34.6661168,24.8396869 34.5669343,24.5788176 34.5042927,24.4431656 C33.9248581,23.1701235 33.3506436,21.8814293 32.6720265,20.6657784 C32.254416,19.9196923 29.1849784,13.3353516 23.2027074,8.14927032 C21.208617,6.42231565 18.8960986,4.85188257 16.2442717,3.70405774 C15.544774,3.34405813 14.8609367,3.08318885 14.2084203,2.92144989 C14.1353385,2.90058035 13.9735144,2.85884127 13.8482312,2.82231957 C12.0264052,2.29014624 5.43859885,0.719713162 0.406391788,0.677974077 C0.38029113,0.677974077 0.35419047,0.677974077 0.328089812,0.677974077 L0.255007966,0.677974077 C0.223687175,0.677974077 0.192366384,0.677974077 0.161045594,0.677974077 L0.0931838807,0.677974077 L0.270668361,146.931728 Z"></path>
                </g>
                <g id="Path" transform="translate(211.006110, 204.049685)" fill="#65666C">
                    <path d="M0.639740735,0.624369943 C0.634520606,0.629587333 0.634520606,0.634804722 0.629300469,0.640022103"></path>
                </g>
                <g id="Shape" transform="translate(0.592259, 0.571645)" fill="#F36D24" fill-rule="nonzero">
                    <path d="M211.043151,204.118062 C195.998732,220.855435 174.288203,231.462379 150.045911,231.608466 C149.868427,231.613684 149.706603,231.639771 149.534339,231.639771 C125.323367,231.639771 103.612839,221.18413 88.4796772,204.624148 C75.0430579,189.921555 66.7795892,170.408533 66.7795892,148.928556 C66.7795892,103.250345 103.826865,66.2225594 149.534339,66.2225594 C195.236593,66.2225594 232.278648,103.250345 232.278648,148.928556 C232.278648,170.163316 224.213544,189.462425 211.053592,204.102409 L211.043151,204.118062 Z M275.986811,158.403329 L298.882309,148.928556 L297.217087,126.686842 L273.1575,120.728587 L267.571959,102.624259 L284.093677,84.1599311 L272.938255,64.8399522 L248.669862,69.911251 L235.781357,56.0225705 L242.65627,32.2208573 L224.208324,19.6521754 L204.549308,34.7460719 L186.910482,27.8226012 L182.765698,3.39480171 L160.694981,0.0713270708 L149.534339,22.1930421 L130.632241,23.6069536 L116.29776,3.39480171 L94.9683008,9.97392497 L94.5141499,34.7460719 L78.0968349,44.2156268 L56.4071873,32.2208573 L40.0472942,47.3982321 L50.3935954,69.911251 L39.7184259,85.5634081 L14.9697811,84.1599311 L6.81071502,104.930343 L25.9059572,120.728587 L23.0766458,139.459001 L0.181147629,148.928556 L1.84636967,171.180706 L25.9059572,177.133743 L31.4914982,195.232854 L14.9697811,213.697182 L26.1252027,233.017161 L50.3935954,227.951079 L63.2768808,241.839759 L56.4071873,265.636255 L74.8551331,278.210155 L94.5141499,263.116258 L112.158195,270.039729 L116.29776,294.467528 L138.368476,297.785786 L149.534339,275.669288 L168.431216,274.255376 L182.765698,294.467528 L204.095156,287.888405 L204.549308,263.116258 L220.961402,253.646703 L242.65627,265.636255 L259.016163,250.464098 L248.669862,227.951079 L259.350252,212.298922 L284.093677,213.697182 L292.252742,192.931987 L273.1575,177.133743 L275.986811,158.403329 Z"></path>
                </g>
                <g id="Shape" transform="translate(49.576419, 89.267202)" fill="#FFFFFF" fill-rule="nonzero">
                    <path d="M11.2285035,8.88349142 C11.7870576,7.94957937 11.9645421,7.14610198 11.7661771,6.46784185 C11.5678121,5.78958171 11.0666794,5.20523453 10.2679992,4.73045244 C9.91303029,4.51653962 9.55284121,4.37567021 9.20309236,4.3078442 C8.84812343,4.24001818 8.49837458,4.25045295 8.16428614,4.33914852 C7.82497757,4.43306145 7.5013294,4.61045256 7.1881215,4.87132185 C6.88013372,5.13219113 6.58780634,5.48697335 6.31113935,5.9408859 L5.18881102,7.81392733 L10.1061752,10.7565328 L11.2285035,8.88349142 Z M3.62799161,4.32871374 C4.28050808,3.23828015 4.96434535,2.37741152 5.6951638,1.75132524 C6.42598225,1.12523897 7.16724097,0.69219596 7.92938021,0.457413607 C8.68107917,0.222631254 9.44321847,0.170457398 10.2001375,0.300892038 C10.9674969,0.426109293 11.7035355,0.707848117 12.4186936,1.13567374 C13.1964932,1.60002106 13.8281291,2.14262916 14.3240417,2.7843676 C14.8199542,3.41567125 15.1488225,4.1252357 15.3002063,4.91306093 C15.4568102,5.69566877 15.4254895,6.56175479 15.2166842,7.5008842 C15.0026588,8.44001358 14.5798281,9.44175167 13.937752,10.5113157 L12.8154236,12.3791397 L17.9937943,15.4834842 L15.8378799,19.0782629 L0.349748831,9.79131651 L3.62799161,4.32871374 Z"></path>
                </g>
                <g id="Shape" transform="translate(75.282683, 63.575078)" fill="#FFFFFF" fill-rule="nonzero">
                    <path d="M10.9703816,8.83825128 L6.49672862,6.14086288 C6.19918111,5.98434131 5.85987254,5.78608066 5.47880292,5.5512983 C5.09773329,5.31651595 4.68534289,5.05564667 4.26251221,4.76869046 C4.49219801,5.23303778 4.69056302,5.67129817 4.8680475,6.09912379 C5.03509172,6.51651464 5.17081514,6.88173164 5.28043791,7.19999216 L7.19100615,12.0312912 L10.9703816,8.83825128 Z M20.5127825,9.80868495 L18.0279998,11.9112914 C17.7513328,12.1460737 17.4746658,12.2660736 17.1927787,12.2817258 C16.9161117,12.2973779 16.6446648,12.2399867 16.3888784,12.1147694 L13.5386864,10.3982495 L8.29245394,14.82781 L9.51396483,17.9217196 C9.59226676,18.156502 9.60270708,18.4225887 9.54528563,18.7147622 C9.48264402,19.0069358 9.32081992,19.2678051 9.05459324,19.4921527 L6.5593702,21.6051938 L0.232570455,3.3026051 L3.51081323,0.53739072 L20.5127825,9.80868495 Z"></path>
                </g>
                <g id="Shape" transform="translate(104.190606, 45.116826)" fill="#FFFFFF" fill-rule="nonzero">
                    <path d="M8.88349657,8.93130602 C9.42117016,8.73304539 9.84922102,8.49826304 10.1728691,8.22174157 C10.4965173,7.94522014 10.7366434,7.64261177 10.8828071,7.31391648 C11.0341909,6.98522119 11.1072727,6.63565635 11.0916124,6.27565675 C11.0811721,5.91565714 11.0028701,5.54522276 10.8671467,5.18000576 C10.5904797,4.43391962 10.1363283,3.94348537 9.48903185,3.70348563 C8.85217584,3.46870328 8.02217484,3.54174668 7.00946928,3.91739844 L5.42776934,4.50696301 L7.30701679,9.52087061 L8.88349657,8.93130602 Z M20.5713717,14.7852127 L17.016462,16.1104286 C16.3587253,16.3556458 15.7897309,16.2878197 15.3251393,15.8965158 L10.6740018,12.0356505 C10.4651965,11.8739116 10.2616114,11.7747812 10.0632464,11.7382595 C9.86488134,11.7069552 9.61431507,11.7434769 9.31154743,11.853042 L8.31450225,12.2286938 L10.6479011,18.4843391 L6.72236203,19.9504245 L0.406002543,3.03566027 L5.9132416,0.980010333 C7.13475244,0.526097785 8.22576,0.260011117 9.18626421,0.192185104 C10.1415483,0.119141705 10.9819896,0.207837261 11.6919275,0.453054386 C12.4018654,0.69827151 12.9969605,1.07914066 13.4772125,1.60087922 C13.9522446,2.1174004 14.3228739,2.73826929 14.5943208,3.45826851 C14.7979059,4.006094 14.917969,4.55391948 14.9492898,5.09652759 C14.9858307,5.6391357 14.9388495,6.17130903 14.8083462,6.6930476 C14.6778429,7.20956877 14.4638175,7.71043779 14.1610498,8.19565462 C13.8582822,8.6808715 13.4719925,9.12434927 12.9969605,9.54174016 C13.3049482,9.57304442 13.6077158,9.65130526 13.9052634,9.76608774 C14.2028109,9.88087022 14.4899181,10.0373917 14.7718053,10.2408698 L20.5713717,14.7852127 Z"></path>
                </g>
                <g id="Path" transform="translate(139.927239, 38.291913)" fill="#FFFFFF">
                    <polygon points="14.5477288 3.68840558 9.46332048 3.81884023 9.83916997 18.5475199 5.65262426 18.6570849 5.27677477 3.92318794 0.197586516 4.05362257 0.108844276 0.735365318 14.4589866 0.370148325"></polygon>
                </g>
                <g id="Path" transform="translate(172.052319, 41.506967)" fill="#FFFFFF">
                    <path d="M21.3282908,5.56552019 L15.6122465,22.6994146 L13.5450743,22.0055023 C13.2370865,21.9011546 12.9969605,21.7707199 12.8246961,21.6037636 C12.6472116,21.4315899 12.5010479,21.1968075 12.3757648,20.8837644 L7.70374681,7.97595235 C7.63066496,8.2942129 7.55236298,8.59682123 7.47406101,8.88899479 C7.38531877,9.17595104 7.30701679,9.44725512 7.21827455,9.69768964 L4.15927731,18.8802883 L0.651348738,17.7115939 L6.36739306,0.582916917 L8.45544579,1.28204659 C8.62771013,1.33943783 8.77387383,1.39682907 8.88349657,1.44900293 C8.99833946,1.50639417 9.09230188,1.5690028 9.17582397,1.64726359 C9.25412598,1.72030698 9.32198767,1.80900254 9.38462928,1.91856764 C9.4472708,2.02291535 9.50469225,2.16378476 9.57255402,2.3307411 L14.2915531,15.3324661 C14.364635,14.993336 14.442937,14.6646407 14.5264591,14.3463802 C14.6204214,14.0333371 14.7039436,13.7359461 14.7979059,13.464642 L17.8203623,4.4020432 L21.3282908,5.56552019 Z"></path>
                </g>
                <g id="Path" transform="translate(204.177399, 59.161456)" fill="#FFFFFF">
                    <polygon points="12.8817283 5.58753395 10.2821027 8.90057381 14.7453154 12.406657 12.829527 14.8431761 8.36631426 11.3370929 5.70404708 14.7179588 11.5349343 19.293606 9.5460641 21.8240381 0.405613297 14.6449154 11.5610349 0.448409109 20.7067059 7.63274911 18.7126156 10.1631811"></polygon>
                </g>
                <g id="Shape" transform="translate(225.862216, 84.444621)" fill="#FFFFFF" fill-rule="nonzero">
                    <path d="M11.6546081,9.93390221 C11.967816,10.4086843 12.2914642,10.7739013 12.6307728,11.0347706 C12.9700813,11.2904225 13.31461,11.4573788 13.6747991,11.5304222 C14.0245479,11.6034656 14.3795169,11.5930309 14.7292658,11.5095527 C15.0790145,11.4156397 15.4235432,11.2643356 15.7524116,11.0452054 C16.4205884,10.6121623 16.7964379,10.0539021 16.8904003,9.38085936 C16.9843626,8.70781663 16.7337964,7.91477399 16.1387013,7.0069489 L15.2199582,5.59825477 L10.7306447,8.5147733 L11.6546081,9.93390221 Z M8.50164845,22.6121493 L6.42403602,19.4295441 C6.0429664,18.8451969 5.98554495,18.2765018 6.26221194,17.7338938 L9.01844155,12.3599865 C9.12806429,12.1199868 9.18026558,11.9008566 9.1750455,11.6973786 C9.16460525,11.4939006 9.07064284,11.2591182 8.8983785,10.9878141 L8.30850362,10.0956412 L2.71252231,13.7425937 L0.426104578,10.2312932 L15.5592667,0.375651765 L18.7644276,5.29564641 C19.4795857,6.38608 19.9754982,7.39825282 20.2573853,8.31129528 C20.5288321,9.22955515 20.6332348,10.0643369 20.5444925,10.8156404 C20.4661906,11.5617265 20.2208444,12.2243345 19.8188942,12.8086817 C19.411724,13.3825941 18.8949309,13.8834631 18.2476346,14.300854 C17.7569422,14.6191145 17.2505894,14.8591143 16.7285762,15.0104184 C16.206563,15.16694 15.6793297,15.2295486 15.136436,15.2191139 C14.6039825,15.2034617 14.066309,15.1043314 13.5286354,14.9165055 C12.9909618,14.7286796 12.4689487,14.4469408 11.9625959,14.0817238 C11.9939167,14.3843322 11.9886965,14.6921579 11.9417153,15.0104184 C11.8947342,15.3234616 11.8007718,15.6417221 11.6650484,15.9599826 L8.50164845,22.6121493 Z"></path>
                </g>
                <g id="Shape" transform="translate(64.842420, 210.465639)" fill="#FFFFFF" fill-rule="nonzero">
                    <path d="M11.1687466,10.9979628 C11.8995651,11.8066576 12.6199432,12.2136137 13.3298812,12.2188311 C14.034599,12.2240484 14.7340966,11.9110053 15.4283742,11.2797017 C15.7363619,11.0031802 15.9712679,10.7057893 16.138312,10.3823113 C16.3053563,10.0692682 16.3940986,9.73013814 16.4045388,9.3805733 C16.414979,9.03100846 16.3418972,8.67100884 16.1800731,8.29535706 C16.0182491,7.91970532 15.7624625,7.53883617 15.4022735,7.14753225 L13.9354165,5.53536009 L9.69666941,9.38579069 L11.1687466,10.9979628 Z M17.7252322,5.03970846 C18.5813337,5.97883787 19.2077496,6.89188035 19.5992595,7.76840114 C19.9855492,8.6449219 20.1839142,9.47970361 20.1891343,10.2779636 C20.1995746,11.0710062 20.0325304,11.811875 19.6827816,12.5005699 C19.343473,13.1944822 18.8632209,13.8153511 18.2472453,14.3840461 C17.5790685,14.9840455 16.8691305,15.437958 16.1174316,15.7301316 C15.3657326,16.0170878 14.593153,16.1266529 13.799693,16.0431747 C12.9957927,15.9649139 12.1814521,15.6936099 11.3410109,15.2188278 C10.5057898,14.7440457 9.67056877,14.0449161 8.82490737,13.1214388 L7.35805037,11.5092667 L2.89483768,15.5683927 L0.0759665005,12.4692656 L13.4395039,0.323191854 L17.7252322,5.03970846 Z"></path>
                </g>
                <g id="Shape" transform="translate(94.554631, 233.746471)" fill="#FFFFFF" fill-rule="nonzero">
                    <path d="M14.0823586,11.7797125 C14.4895289,10.9814525 14.7557556,10.2144968 14.8758187,9.47362804 C14.9958817,8.73797672 14.9802213,8.04406444 14.8183972,7.40754337 C14.6617933,6.76580494 14.3642457,6.18145774 13.9257547,5.65971918 C13.4872636,5.13798062 12.9182692,4.69450285 12.2031112,4.32406847 C11.4879531,3.95885147 10.7832353,3.74493866 10.0993981,3.68754742 C9.4155608,3.63015618 8.76826448,3.7292865 8.15750903,3.96928624 C7.54675361,4.20406859 6.96731898,4.59537251 6.43486553,5.12232847 C5.90241209,5.6545018 5.42738009,6.31189239 5.02020981,7.10493501 C4.6078194,7.90319501 4.33637254,8.67536805 4.21630951,9.41623684 C4.09624648,10.1571056 4.11190688,10.8510178 4.27373097,11.4875389 C4.43033492,12.1292773 4.73310257,12.7031897 5.17681377,13.2301457 C5.62052497,13.7518843 6.1999596,14.1901447 6.92033779,14.5657964 C7.63027572,14.9310134 8.32455322,15.1449262 9.00317035,15.2023175 C9.68178748,15.2597087 10.3238637,15.1657958 10.9398392,14.925796 C11.5505947,14.6805789 12.1248092,14.2997098 12.6572627,13.7675364 C13.1949362,13.2405805 13.6647481,12.5779726 14.0823586,11.7797125 Z M17.8878347,13.7414496 C17.2927397,14.8997092 16.5306005,15.8805776 15.6222975,16.6684028 C14.7035543,17.4614454 13.6856286,18.0405752 12.5841808,18.4005749 C11.4775128,18.7605745 10.2977631,18.8910091 9.0605918,18.7762266 C7.81820046,18.6718789 6.57058896,18.2962272 5.32819759,17.6492714 C4.08058609,17.0075329 3.04177986,16.2092729 2.23265943,15.2649261 C1.423539,14.3101446 0.84410437,13.2823195 0.489135405,12.165799 C0.144606706,11.0492786 0.0193235428,9.89101894 0.139386574,8.68580283 C0.254229474,7.48058677 0.614418569,6.30145762 1.2095136,5.13798062 C1.80982876,3.97450363 2.56674787,3.0040699 3.48027093,2.21102728 C4.393794,1.41798467 5.4117197,0.84407225 6.51838764,0.48929003 C7.63027572,0.129290422 8.80480536,0.0092905526 10.0524169,0.118855651 C11.2948083,0.233638135 12.5424198,0.609289899 13.7900312,1.25102833 C15.0376428,1.89798415 16.0712288,2.69102677 16.8751292,3.64580833 C17.6790294,4.59537251 18.2532439,5.62841487 18.6082129,6.73450063 C18.9527416,7.84580376 19.0728047,8.99884594 18.9527416,10.2040621 C18.8431189,11.4092782 18.4829297,12.5884073 17.8878347,13.7414496 Z"></path>
                </g>
                <g id="Shape" transform="translate(131.095554, 243.377479)" fill="#FFFFFF" fill-rule="nonzero">
                    <path d="M7.0195203,9.68260959 C7.58851466,9.75043557 8.07920702,9.73478341 8.49159748,9.63565309 C8.90398786,9.53652278 9.25895686,9.37478379 9.54084394,9.14521882 C9.8227311,8.92087125 10.0419766,8.64956717 10.1985806,8.32087188 C10.3499644,7.99217661 10.4491469,7.632177 10.4961281,7.2356557 C10.5848703,6.45304785 10.4021657,5.80609204 9.93757399,5.30522301 C9.47298225,4.79913661 8.70040271,4.49131086 7.62505559,4.36609361 L5.95461341,4.17305033 L5.34907812,9.49478366 L7.0195203,9.68260959 Z M14.7766362,20.200859 L11.0129211,19.7730333 C10.3134235,19.6895552 9.8383915,19.3660773 9.59304531,18.807817 L7.20744504,13.2565187 C7.09782227,13.0269538 6.95687871,12.8391278 6.80027476,12.719128 C6.63845067,12.5991281 6.39832461,12.5208673 6.07467643,12.4843456 L5.01498968,12.3643457 L4.25807057,18.9956429 L0.0976255198,18.5208608 L2.14913732,0.583489026 L7.98524468,1.25131439 C9.28505751,1.39740118 10.376065,1.65827046 11.2634875,2.02870484 C12.1456897,2.39913922 12.8451874,2.85826916 13.3724207,3.40087726 C13.899654,3.94348537 14.254623,4.55391948 14.4425477,5.23217962 C14.6304725,5.91043975 14.6826738,6.63043897 14.5939316,7.39217727 C14.53129,7.97652446 14.3851263,8.5191326 14.1711009,9.02000156 C13.9570755,9.51565322 13.6751883,9.96956576 13.3202194,10.3765219 C12.9652504,10.7782605 12.5476399,11.122608 12.0569475,11.419999 C11.5714753,11.71739 11.0233614,11.9417375 10.4178261,12.0930417 C10.6683924,12.2652154 10.9032984,12.4634761 11.1173238,12.7034758 C11.3313491,12.9382582 11.5140538,13.2147796 11.6758778,13.517388 L14.7766362,20.200859 Z"></path>
                </g>
                <g id="Path" transform="translate(162.416345, 240.966189)" fill="#FFFFFF">
                    <polygon points="15.0011018 3.94434353 10.0367565 5.02434236 13.1740557 19.4243267 9.08147236 20.3112823 5.94417314 5.9165153 0.97460766 6.99651413 0.269889869 3.75130026 14.296384 0.699129674"></polygon>
                </g>
                <g id="Shape" transform="translate(194.541425, 230.531418)" fill="#FFFFFF" fill-rule="nonzero">
                    <path d="M10.3965563,10.106076 L6.41359576,6.73042746 C6.14736904,6.52173203 5.84460139,6.27129752 5.50529283,5.97912392 C5.16598426,5.68173294 4.81101529,5.36347242 4.42994567,5.0086902 C4.58654963,5.50434184 4.71183279,5.97390654 4.81623543,6.41738432 C4.91541793,6.85564471 4.99371991,7.24173124 5.04592123,7.57564393 L6.15258917,12.6469428 L10.3965563,10.106076 Z M19.6570702,12.610421 L16.8695197,14.2747671 C16.561532,14.4625929 16.2639845,14.5408537 15.9820974,14.5095494 C15.7054304,14.4782451 15.4496439,14.3791148 15.214738,14.2121584 L12.6777539,12.0625956 L6.78422512,15.5895482 L7.49416305,18.8399795 C7.5359241,19.0851966 7.49938317,19.3460659 7.39498054,19.6225873 C7.29057791,19.9043262 7.08699276,20.1338911 6.78422512,20.3112823 L3.98101434,21.9964978 L0.697551432,2.91651856 L4.37252423,0.709564445 L19.6570702,12.610421 Z"></path>
                </g>
                <g id="Path" transform="translate(216.620636, 212.876929)" fill="#FFFFFF">
                    <polygon points="18.5941095 4.80406794 21.146754 6.96406559 14.1152364 15.2701435 0.328868303 3.60928663 3.03289658 0.411029246 14.2718403 9.90667111"></polygon>
                </g>
            </g>
        </g>
    </g>
</svg>